<?xml version="1.0" encoding="utf-8"?>
<!-- Generator: Adobe Illustrator 20.1.0, SVG Export Plug-In . SVG Version: 6.00 Build 0)  -->
<svg version="1.1" id="Layer_1" xmlns="http://www.w3.org/2000/svg" xmlns:xlink="http://www.w3.org/1999/xlink" x="0px" y="0px"
	 viewBox="0 0 81 37.8" style="enable-background:new 0 0 81 37.8;" xml:space="preserve">
<style type="text/css">
	.st0{fill:#11171E;}
	.st1{filter:url(#Adobe_OpacityMaskFilter);}
	.st2{fill:#FFFFFF;}
	.st3{mask:url(#mask-2);fill:#D9272D;}
	.st4{fill:#D9272D;}
</style>
<title>Axway Logo</title>
<desc>Created with Sketch.</desc>
<g id="Page-1">
	<g id="Home" transform="translate(-380.000000, -13.000000)">
		<g id="Nav">
			<g id="Axway-Logo" transform="translate(380.000000, 13.000000)">
				<path id="Fill-1" class="st0" d="M3,18.2l2.4-0.4c0.6-0.1,0.7-0.4,0.7-0.7c0-0.7-0.5-1.3-1.7-1.3c-1.2,0-1.8,0.7-1.9,1.6
					l-2.4-0.5c0.2-1.6,1.6-3.3,4.3-3.3c3.1,0,4.3,1.8,4.3,3.8v4.9c0,0.5,0.1,1.2,0.1,1.6H6.4c-0.1-0.3-0.1-0.8-0.1-1.2
					c-0.5,0.8-1.5,1.5-2.9,1.5c-2.1,0-3.4-1.4-3.4-3C0,19.4,1.3,18.4,3,18.2 M6.2,19.9v-0.4l-2.2,0.3c-0.7,0.1-1.2,0.5-1.2,1.3
					c0,0.6,0.4,1.2,1.3,1.2C5.1,22.2,6.2,21.6,6.2,19.9"/>
				<path id="Fill-3" class="st0" d="M12.7,18.9l-3.5-5h3.2c0.3,0.5,1.6,2.4,2,3l2-3h3l-3.5,4.9l3.6,5.1h-3.1l-2.1-3.1
					c-0.4,0.5-1.7,2.5-2,3.1h-3L12.7,18.9z"/>
				<polygon id="Fill-5" class="st0" points="28.6,13.9 30.8,20.3 32.6,13.9 35.3,13.9 32.2,23.9 29.5,23.9 27.2,17.1 24.9,23.9 
					22.2,23.9 19,13.9 21.8,13.9 23.7,20.3 25.8,13.9 				"/>
				<path id="Fill-7" class="st0" d="M38,18.2l2.4-0.4c0.6-0.1,0.7-0.4,0.7-0.7c0-0.7-0.5-1.3-1.7-1.3c-1.2,0-1.8,0.7-1.9,1.6
					l-2.4-0.5c0.2-1.6,1.6-3.3,4.3-3.3c3.1,0,4.3,1.8,4.3,3.8v4.9c0,0.5,0.1,1.2,0.1,1.6h-2.5c-0.1-0.3-0.1-0.8-0.1-1.2
					c-0.5,0.8-1.5,1.5-2.9,1.5c-2.1,0-3.4-1.4-3.4-3C35,19.4,36.3,18.4,38,18.2 M41.2,19.9v-0.4L39,19.8c-0.7,0.1-1.2,0.5-1.2,1.3
					c0,0.6,0.4,1.2,1.3,1.2C40.1,22.2,41.2,21.6,41.2,19.9"/>
				<polygon id="Fill-9" class="st0" points="45.5,27.8 47.8,22.6 43.6,13.9 46.6,13.9 49.3,19.8 51.7,13.9 54.6,13.9 48.3,27.8 
									"/>
				<g id="Group-13" transform="translate(56.410714, 0.062495)">
					<g id="Clip-12">
					</g>
					<defs>
						<filter id="Adobe_OpacityMaskFilter" filterUnits="userSpaceOnUse" x="0" y="0.1" width="24.6" height="14">
							<feColorMatrix  type="matrix" values="1 0 0 0 0  0 1 0 0 0  0 0 1 0 0  0 0 0 1 0"/>
						</filter>
					</defs>
					<mask maskUnits="userSpaceOnUse" x="0" y="0.1" width="24.6" height="14" id="mask-2">
						<g class="st1">
							<polygon id="path-1" class="st2" points="24.6,0.1 0,0.1 0,14.1 24.6,14.1 							"/>
						</g>
					</mask>
					<polygon id="Fill-11" class="st3" points="24.6,10.2 24.6,6.8 19.5,4.3 19.5,9.4 0,0.1 0,3.5 22.3,14.1 22.3,9.1 					"/>
				</g>
				<polygon id="Fill-14" class="st4" points="61.4,12.7 61.4,16.1 65,17.8 59.2,23.9 63,23.9 69.8,16.7 				"/>
				<polygon id="Fill-16" class="st4" points="78.7,15.9 59.1,6.5 59.1,9.9 74.7,17.4 				"/>
			</g>
		</g>
	</g>
</g>
</svg>
